<?xml version="1.0" encoding="UTF-8" standalone="no"?>
<!-- Created with Inkscape (http://www.inkscape.org/) -->

<svg
   version="1.1"
   id="svg856"
   width="300"
   height="300"
   viewBox="0 0 300 300"
   sodipodi:docname="paper-300x300.svg"
   inkscape:version="1.1 (c4e8f9e, 2021-05-24)"
   xmlns:inkscape="http://www.inkscape.org/namespaces/inkscape"
   xmlns:sodipodi="http://sodipodi.sourceforge.net/DTD/sodipodi-0.dtd"
   xmlns="http://www.w3.org/2000/svg"
   xmlns:svg="http://www.w3.org/2000/svg">
  <defs
     id="defs860" />
  <sodipodi:namedview
     id="namedview858"
     pagecolor="#ffffff"
     bordercolor="#666666"
     borderopacity="1.0"
     inkscape:pageshadow="2"
     inkscape:pageopacity="0.0"
     inkscape:pagecheckerboard="0"
     showgrid="false"
     inkscape:zoom="2.1466667"
     inkscape:cx="150"
     inkscape:cy="149.76708"
     inkscape:window-width="1312"
     inkscape:window-height="847"
     inkscape:window-x="0"
     inkscape:window-y="25"
     inkscape:window-maximized="0"
     inkscape:current-layer="g862" />
  <g
     inkscape:groupmode="layer"
     inkscape:label="Image"
     id="g862">
    <path
       style="fill:#000000"
       d="M 139.89752,253.00617 C 118.63513,248.26681 99.887333,234.73766 90.837412,217.60248 85.535114,207.56307 79.495245,200.59676 67.049345,190.16561 59.723919,184.02603 54.985492,179.25398 53.86044,176.88311 c -7.984825,-16.82677 5.678372,-32.9227 24.447452,-28.80031 1.818074,0.39931 7.981996,4.29108 13.697606,8.64838 5.715605,4.35729 10.392012,7.43385 10.392012,6.8368 0,-0.59706 -4.049997,-17.7558 -8.999995,-38.13054 -5.112926,-21.04534 -9,-39.176312 -9,-41.979802 0,-8.735135 5.977408,-16.877929 13.413708,-18.272989 5.863377,-1.099975 11.550447,1.051167 16.624917,6.288401 4.34827,4.487741 4.78568,5.51084 10.42928,24.394204 3.23986,10.840506 6.08405,19.516616 6.32041,19.280246 0.23637,-0.23637 0.79447,-12.98345 1.24024,-28.326864 0.87599,-30.152337 1.34924,-32.845868 6.7745,-38.557428 3.86209,-4.065901 7.43926,-5.660724 12.69695,-5.660724 5.25769,0 8.83486,1.594823 12.69695,5.660724 5.59465,5.889893 6.04799,8.48349 6.70129,38.339276 l 0.60176,27.499996 5.27765,-19.999996 c 5.73615,-21.737518 7.33654,-24.901242 14.81741,-29.291849 7.71713,-4.529263 17.86467,-1.081137 21.9107,7.445232 3.15609,6.650964 2.92556,10.69961 -1.92183,33.752153 -2.53342,12.04803 -4.44183,22.06989 -4.24093,22.2708 0.20091,0.20091 3.19259,-3.92243 6.64819,-9.16298 6.4644,-9.8035 12.22159,-15.88335 16.62619,-17.55798 1.38205,-0.52545 4.49287,-0.95537 6.91292,-0.95537 8.57262,0 14.47451,8.86816 13.1794,19.80333 -0.30984,2.61607 -4.6313,14.78597 -9.60325,27.04422 -9.97764,24.59968 -12.14613,31.46952 -15.08457,47.78818 -3.7833,21.01071 -9.14101,33.95679 -18.11772,43.77874 -9.68006,10.59154 -21.7476,14.57962 -45.90416,15.17041 -11.54881,0.28245 -17.28441,-0.0187 -22.5,-1.1812 z m 39.81389,-10.00676 c 10.05554,-2.06058 16.05598,-5.01587 21.07162,-10.37799 7.74497,-8.27999 13.02533,-21.12784 16.1446,-39.28203 2.79271,-16.25358 5.42481,-24.72671 15.05086,-48.45101 10.13064,-24.96794 11.30875,-30.26576 7.49737,-33.715 -1.81287,-1.64063 -2.12383,-1.64315 -5.49262,-0.0446 -2.84605,1.35054 -5.87601,5.1739 -14.92577,18.83409 -6.24515,9.42676 -12.28138,17.95871 -13.41384,18.95989 -3.19151,2.82154 -8.37899,1.92005 -10.13526,-1.76131 -1.28572,-2.69505 -0.87913,-5.48168 4.86206,-33.32289 4.19089,-20.323186 6.07433,-31.557598 5.68885,-33.933042 -1.20733,-7.439892 -7.0724,-9.615233 -12.01495,-4.456318 -2.33186,2.433933 -3.8899,7.387642 -10.74372,34.15916 -4.40899,17.22182 -8.67742,32.59078 -9.4854,34.15324 -1.19252,2.30608 -2.13265,2.84083 -4.9944,2.84083 -5.96691,0 -6.16684,-1.30878 -6.95403,-45.52255 -0.60663,-34.07264 -0.91668,-39.494783 -2.46396,-43.08861 -3.07436,-7.140736 -9.52766,-7.63967 -14.37466,-1.11137 -2.296,3.092427 -2.10363,0.218988 -3.51826,52.55354 l -0.81986,30.33102 -2.55124,2.55124 c -3.02007,3.02007 -6.63524,2.6237 -9.00098,-0.98687 -0.82781,-1.2634 -5.3994,-15.33118 -10.15908,-31.26175 -7.97621,-26.696118 -8.92409,-29.219132 -12.10291,-32.214596 -1.89693,-1.7875 -4.50212,-3.25 -5.78932,-3.25 -2.759267,0 -6.176932,3.440274 -7.034366,7.080897 -0.386286,1.640152 2.846409,16.762956 8.868756,41.488809 5.21215,21.39936 9.47662,40.84591 9.47662,43.21456 0,3.23915 -0.60841,4.91505 -2.45455,6.76118 -4.65419,4.65419 -8.504,3.30006 -23.221755,-8.16796 -9.353845,-7.28849 -12.503851,-8.75388 -17.003013,-7.90983 -6.304198,1.18268 -10.395566,9.78688 -7.355142,15.46796 0.531049,0.99227 6.118181,6.12266 12.415847,11.40085 12.463805,10.44615 17.987099,16.93152 24.731526,29.03937 7.505107,13.47343 21.821047,24.68183 37.197277,29.12292 12.34675,3.5661 28.35297,3.9004 43.0037,0.89817 z"
       id="path964" />
  </g>
</svg>
