<?xml version="1.0" encoding="UTF-8" standalone="no"?>
<!-- Created with Inkscape (http://www.inkscape.org/) -->

<svg
   version="1.1"
   id="svg2008"
   width="300"
   height="300"
   viewBox="0 0 300 300"
   sodipodi:docname="rock-300x300.svg"
   inkscape:version="1.1 (c4e8f9e, 2021-05-24)"
   xmlns:inkscape="http://www.inkscape.org/namespaces/inkscape"
   xmlns:sodipodi="http://sodipodi.sourceforge.net/DTD/sodipodi-0.dtd"
   xmlns="http://www.w3.org/2000/svg"
   xmlns:svg="http://www.w3.org/2000/svg">
  <defs
     id="defs2012" />
  <sodipodi:namedview
     id="namedview2010"
     pagecolor="#ffffff"
     bordercolor="#666666"
     borderopacity="1.0"
     inkscape:pageshadow="2"
     inkscape:pageopacity="0.0"
     inkscape:pagecheckerboard="0"
     showgrid="false"
     inkscape:zoom="2.17"
     inkscape:cx="149.76959"
     inkscape:cy="150"
     inkscape:window-width="1306"
     inkscape:window-height="847"
     inkscape:window-x="0"
     inkscape:window-y="25"
     inkscape:window-maximized="0"
     inkscape:current-layer="g2014" />
  <g
     inkscape:groupmode="layer"
     inkscape:label="Image"
     id="g2014">
    <path
       style="fill:#000000"
       d="m 122.96083,254.99848 c -28.473395,-4.28245 -57.947928,-23.46939 -67.859746,-44.17445 -1.928369,-4.02821 -4.271406,-11.132 -5.206749,-15.7862 -3.772606,-18.77217 1.442167,-41.85861 13.453949,-59.56225 l 4.839158,-7.13223 -3.842897,-23.92167 C 59.783673,76.030668 59.576675,70.440668 62.827701,63.459135 66.717709,55.105394 73.110082,50.733415 83.971152,48.998351 92.859832,47.578378 98.2412,48.495812 105.04094,52.590403 l 5.58707,3.36436 2.46232,-2.926292 c 6.03904,-7.176995 20.97052,-10.740206 31.80626,-7.59017 4.39099,1.276495 6.9515,2.853721 10.67076,6.572981 2.69141,2.691414 4.89348,5.354998 4.89348,5.919075 0,0.564077 2.06928,-0.286701 4.59839,-1.890618 6.21489,-3.941367 12.66775,-5.202611 21.16141,-4.136109 11.86018,1.489216 19.35282,7.119304 22.9838,17.27038 1.37354,3.839996 1.96906,4.514956 3.33741,3.782634 6.29129,-3.366993 19.2485,-2.886686 26.78976,0.993059 6.63901,3.415575 11.51667,10.230495 12.66509,17.695325 0.57135,3.71379 -5.73643,46.252442 -7.21265,48.641032 -0.36537,0.59118 -0.55675,8.12532 -0.42529,16.74254 0.37535,24.60384 -3.08404,43.23115 -11.18914,60.24875 -5.35757,11.24885 -11.0799,18.62592 -17.99073,23.19315 -8.1398,5.37945 -14.69684,6.66545 -32.71805,6.41683 l -15.5,-0.21383 -6.71296,3.24017 c -10.54451,5.08957 -24.55347,6.99996 -37.28704,5.08481 z m 27.86027,-14.40886 c 2.67314,-0.95909 7.03146,-3.07975 9.68515,-4.71258 l 4.82488,-2.96878 8.81485,1.17538 c 10.65408,1.42063 24.34864,0.68689 30.09531,-1.61247 2.42612,-0.97075 6.24972,-3.9121 9.00623,-6.92815 10.87404,-11.89794 17.71464,-33.30598 18.92864,-59.23822 l 0.57091,-12.19521 -4.89312,1.49772 c -8.44198,2.58398 -16.507,0.41497 -23.55569,-6.33507 l -3.66257,-3.50739 -3.4061,2.59796 C 192.94902,151.62775 186.32421,154 181.48698,154 c -3.36172,0 -3.89338,0.37915 -5.48693,3.91302 -5.05453,11.20894 -17.14834,16.01799 -40.40585,16.06717 -10.46686,0.0221 -9.84211,-0.73706 -6.59967,8.01981 3.63597,9.81968 -0.40421,23.42454 -9.76345,32.87734 -4.44751,4.49197 -7.8554,5.26056 -10.94151,2.46767 -2.98804,-2.70414 -2.20721,-6.09041 2.6941,-11.68366 2.68298,-3.06175 5.1807,-7.24205 6.14003,-10.27625 1.47642,-4.66965 1.48038,-5.51643 0.0455,-9.72758 -0.86443,-2.53697 -3.17745,-7.03184 -5.14003,-9.9886 -1.96259,-2.95676 -3.56834,-6.54134 -3.56834,-7.96572 0,-4.68017 3.0291,-5.70119 16.97251,-5.72097 26.23487,-0.0372 36.11642,-2.43518 39.51072,-9.58813 3.08366,-6.49833 0.79032,-16.66203 -4.67151,-20.70333 -3.79047,-2.80464 -9.55866,-3.5848 -31.81172,-4.30257 -29.829295,-0.96215 -43.88643,2.13164 -52.104119,11.46743 -4.988108,5.66679 -10.095397,16.14501 -12.940398,26.5488 -2.886093,10.55406 -2.452797,27.13236 0.936213,35.82034 3.016605,7.73328 9.82489,16.73543 16.827912,22.25044 7.613493,5.99577 25.877982,15.08075 35.280392,17.54891 9.45382,2.48165 26.84542,2.26172 34.36027,-0.4345 z m 76.5999,-98.22516 c 4.55917,-2.69317 5.80673,-6.17397 8.99451,-25.09549 3.92294,-23.285092 3.93326,-26.227182 0.10542,-30.055032 -6.13377,-6.13376 -18.87404,-5.54528 -23.00061,1.06241 -1.31898,2.11203 -4.00406,29.238062 -4.03104,40.723652 -0.0166,7.0697 1.88044,11.27162 6.16131,13.64714 3.21685,1.78508 8.48411,1.65858 11.77041,-0.28268 z m -41.63136,-1.72849 c 4.2246,-1.76515 8.45296,-6.83199 9.10909,-10.91541 0.28462,-1.77131 1.21543,-14.56663 2.06846,-28.43406 1.70729,-27.754545 1.54002,-29.213994 -3.92618,-34.256563 -2.17395,-2.005472 -3.95645,-2.542326 -9.47692,-2.85426 -8.01259,-0.452752 -12.15575,1.222401 -15.14374,6.122872 -1.78837,2.933025 -1.95236,5.156269 -1.95578,26.516009 l -0.004,23.314562 3.04916,2.5657 c 2.79718,2.35367 7.95084,10.91422 7.95084,13.20684 0,2.44399 2.10174,6.09834 3.50737,6.09834 0.85628,0 3.02593,-0.61381 4.82144,-1.36403 z M 101.21083,115.5184 c 6.19273,-0.70822 6.25002,-0.74366 6.25263,-3.86659 0.008,-9.35621 -3.40403,-41.482395 -4.66713,-43.946033 -2.17596,-4.244125 -6.978229,-6.697694 -13.117619,-6.702039 -9.135165,-0.0065 -15.766429,4.366724 -16.835776,11.102866 -0.296282,1.866368 1.071539,13.457074 3.039601,25.757124 1.968062,12.300052 3.578294,22.470022 3.578294,22.599942 0,0.12992 3.4875,-0.76879 7.75,-1.99714 4.2625,-1.22835 10.5625,-2.55501 14,-2.94813 z M 151.43697,93.749998 C 151.42387,81.512498 150.99764,69.7 150.48983,67.5 149.90518,64.96711 148.26882,62.307973 146.02837,60.25 142.75406,57.242366 141.97811,57 135.6234,57 c -8.08237,0 -12.60084,2.364411 -15.39615,8.056447 -1.65443,3.368875 -1.63737,4.555405 0.3737,25.986801 1.15901,12.351212 2.29239,22.660012 2.51861,22.908452 0.34491,0.37875 11.60586,1.22639 25.09127,1.88869 l 3.25,0.15961 z"
       id="path2075" />
  </g>
</svg>
