<?xml version="1.0" encoding="UTF-8" standalone="no"?>
<!-- Created with Inkscape (http://www.inkscape.org/) -->

<svg
   version="1.1"
   id="svg2212"
   width="300"
   height="300"
   viewBox="0 0 300 300"
   sodipodi:docname="scissor-300x300.svg"
   inkscape:version="1.1 (c4e8f9e, 2021-05-24)"
   xmlns:inkscape="http://www.inkscape.org/namespaces/inkscape"
   xmlns:sodipodi="http://sodipodi.sourceforge.net/DTD/sodipodi-0.dtd"
   xmlns="http://www.w3.org/2000/svg"
   xmlns:svg="http://www.w3.org/2000/svg">
  <defs
     id="defs2216" />
  <sodipodi:namedview
     id="namedview2214"
     pagecolor="#ffffff"
     bordercolor="#666666"
     borderopacity="1.0"
     inkscape:pageshadow="2"
     inkscape:pageopacity="0.0"
     inkscape:pagecheckerboard="0"
     showgrid="false"
     inkscape:zoom="2.17"
     inkscape:cx="149.76959"
     inkscape:cy="150"
     inkscape:window-width="1306"
     inkscape:window-height="847"
     inkscape:window-x="0"
     inkscape:window-y="25"
     inkscape:window-maximized="0"
     inkscape:current-layer="g2218" />
  <g
     inkscape:groupmode="layer"
     inkscape:label="Image"
     id="g2218">
    <path
       style="fill:#000000"
       d="m 128.99919,255.90583 c -18.96079,-2.45609 -37.690477,-14.31676 -44.365167,-28.09446 -1.415218,-2.92125 -3.261826,-7.99341 -4.103574,-11.27147 -1.949934,-7.59372 -1.961576,-24.08593 -0.02281,-32.30906 1.492468,-6.33018 5.498359,-15.3408 8.172424,-18.38258 1.282622,-1.459 0.277434,-7.29721 -8.614,-50.03073 C 74.52973,89.209089 70,65.853228 70,63.915618 c 0,-5.296123 4.567759,-13.601197 9.147493,-16.631922 4.237011,-2.803921 11.361992,-3.973501 17.355989,-2.849021 3.698138,0.693775 10.680188,6.172049 12.718318,9.979075 0.61429,1.147438 4.81693,16.48625 9.33921,34.08625 4.52227,17.6 8.46688,31.325 8.76581,30.5 0.29893,-0.825 3.2884,-14.55 6.64328,-30.5 3.35487,-15.95 6.8446,-30.725665 7.75495,-32.834812 3.48854,-8.082402 14.02906,-13.641949 22.3096,-11.767089 10.54894,2.388467 16.97533,10.083725 16.9546,20.302241 -0.006,2.914813 -1.80589,15.64966 -3.99995,28.29966 -2.19406,12.65 -3.98922,23.32636 -3.98925,23.72525 -3e-5,0.39889 1.15424,0.28639 2.56505,-0.25 12.58158,-4.78351 30.32274,6.70067 30.41294,19.68685 0.0204,2.93765 0.32363,3.21228 4.27196,3.86896 2.3375,0.38877 6.15456,1.81643 8.48237,3.17258 11.6597,6.79282 14.43092,18.45247 7.03366,29.59355 -3.35651,5.05527 -3.49084,5.62784 -4.03895,17.21599 -1.01999,21.56469 -9.32395,41.64543 -21.89575,52.94856 -6.4526,5.80145 -14.5033,8.37574 -29.83133,9.53889 -6.325,0.47997 -13.75,1.51177 -16.5,2.2929 -6.91395,1.96388 -16.77639,2.61288 -24.50081,1.6123 z M 155,243.13637 c 4.16991,-1.61896 7.69308,-2.13548 14.5685,-2.13587 17.96702,-9.9e-4 26.07229,-5.12474 33.95288,-21.46333 C 207.76036,210.74861 211,200.5334 211,195.95562 c 0,-1.94054 -0.40411,-1.69784 -2.89236,1.73709 -7.592,10.48045 -18.62687,13.20007 -28.10619,6.92695 C 175.96252,201.94682 172,195.71697 172,192.03984 172,190.28657 171.36286,190 167.46482,190 c -2.49435,0 -5.55564,0.66862 -6.80285,1.48583 -1.24722,0.81721 -7.41889,2.63124 -13.71482,4.03118 -6.29593,1.39995 -11.97398,2.72851 -12.61788,2.95237 -0.86912,0.30215 -0.78963,1.64668 0.30855,5.21882 2.4864,8.08777 0.0481,16.2262 -7.29749,24.35686 -3.70969,4.10618 -7.70393,5.19134 -10.14033,2.75494 -1.74101,-1.74101 -1.47071,-6.33219 0.46672,-7.92756 3.85576,-3.17498 7.33319,-9.23601 7.32802,-12.77248 -0.005,-3.37663 -0.77291,-5.02362 -5.32767,-11.4257 -2.04458,-2.87383 -1.54503,-6.15097 1.15065,-7.54857 0.92526,-0.4797 8.43228,-2.33719 16.68228,-4.12776 20.94639,-4.54617 22.5,-5.54802 22.5,-14.50911 0,-3.79803 -0.53179,-5.17446 -2.92308,-7.56574 -2.90179,-2.9018 -3.00918,-2.92305 -14.75,-2.91906 -12.47436,0.004 -27.02435,1.91304 -35.03394,4.59606 -9.820552,3.28965 -14.217667,8.83651 -16.850027,21.25594 -3.778395,17.82639 0.466092,35.38144 10.801267,44.67365 5.59259,5.02822 15.31771,10.13607 23.02793,12.09479 7.7573,1.97067 23.82315,1.19264 30.72785,-1.48809 z m 38.78459,-46.21112 c 2.38818,-0.83253 5.44802,-4.50462 13.57624,-16.29276 5.77125,-8.3699 11.02503,-16.38526 11.67506,-17.81192 1.56041,-3.42472 -0.31191,-7.42197 -4.93377,-10.53324 -4.05908,-2.73242 -8.10393,-2.93009 -10.99501,-0.53733 -3.04814,2.52275 -20.19995,32.14887 -20.83071,35.98063 -0.61502,3.73619 1.64528,7.89564 5.0319,9.25977 2.91154,1.17278 2.92555,1.17264 6.47629,-0.0651 z M 173.70614,176.75 c 1.13012,-1.2375 6.45872,-9.9 11.84134,-19.25 10.59438,-18.40322 11.75754,-22.29417 7.92979,-26.52654 -5.20583,-5.75612 -14.02446,-7.34127 -17.77649,-3.19532 -0.86558,0.95646 -4.26339,7.43818 -7.55069,14.40382 -5.95512,12.61866 -5.96954,12.67146 -3.95708,14.49142 3.77819,3.41682 6.11555,9.46302 6.21398,16.07412 0.0511,3.43613 0.35207,6.24863 0.6687,6.25 0.31662,0.001 1.50033,-1.01 2.63045,-2.2475 z m -62.95772,-21.74708 c 7.26885,-1.9257 25.89585,-3.97329 36.32086,-3.9926 l 5.56928,-0.0103 3.14425,-7.25 c 2.57679,-5.94158 4.23366,-13.61028 9.18071,-42.49242 C 168.28359,81.874254 171,64.841754 171,63.407583 171,61.77543 169.72815,59.528147 167.6,57.4 c -4.42712,-4.427115 -9.17175,-4.647949 -13.66203,-0.635884 -2.99522,2.676231 -3.35505,3.978999 -11.31695,40.973907 -6.93874,32.240797 -8.59409,38.604407 -10.59651,40.735887 -3.72515,3.96524 -8.70402,2.98186 -11.40969,-2.25355 C 119.84158,134.72416 115.11034,117.3 110.10095,97.5 105.09157,77.7 100.44797,60.449109 99.781851,59.164686 98.409352,56.518213 94.127471,54 91,54 c -3.706444,0 -8.108968,3.016549 -9.595725,6.574859 -1.360575,3.256315 -0.912207,5.980405 8.310296,50.489671 9.242787,44.60716 9.85317,47.01681 11.766949,46.45316 1.11016,-0.32697 5.28027,-1.45861 9.2669,-2.51477 z"
       id="path2297" />
  </g>
</svg>
